<?xml version="1.0" encoding="UTF-8"?>
<svg xmlns="http://www.w3.org/2000/svg" width="288" height="288" viewBox="4 4 286 286" role="img" aria-labelledby="title desc" shape-rendering="geometricPrecision">
  <title id="title">Professional Hamdong teal gradient logo</title>
  <desc id="desc">Clean professional SVG recreation with precise straight sections, smooth curves, transparent background, and teal gradient matching the reference image.</desc>
  <defs>
    <linearGradient id="logoGradient" x1="45" y1="34" x2="242" y2="270" gradientUnits="userSpaceOnUse">
      <stop offset="0%" stop-color="#09C596"/>
      <stop offset="38%" stop-color="#06B98B"/>
      <stop offset="72%" stop-color="#02A47B"/>
      <stop offset="100%" stop-color="#008B6E"/>
    </linearGradient>
  </defs>

  <g fill="url(#logoGradient)">
    <!-- Left / upper link -->
    <path d="
      M 117.5 32.2
      C 109.8 32.1 102.1 35.1 96.6 40.6
      L 37.5 99.7
      C 21.1 116.1 20.9 145.4 37.1 162.0
      L 78.0 203.8
      C 93.9 220.0 119.0 224.6 139.0 209.0
      L 185.8 162.2
      C 187.9 160.1 187.3 152.9 185.0 150.4
      L 171.5 136.9
      C 168.6 134.0 161.9 134.7 158.6 137.9
      L 117.5 178.5
      C 109.0 186.8 101.2 183.2 96.2 178.4
      L 66.2 148.4
      C 57.0 139.2 58.5 127.8 67.2 119.2
      L 122.0 64.5
      C 130.1 56.5 143.0 54.9 153.2 58.1
      C 151.0 43.7 138.2 32.4 117.5 32.2
      Z"/>

    <!-- Right / lower link -->
    <path d="
      M 169.2 73.4
      C 157.0 73.4 145.0 77.0 137.0 85.0
      L 93.0 129.4
      Q 89.7 132.7 90.2 137.5
      L 108.3 155.6
      Q 112.6 159.9 116.8 155.8
      L 159.0 115.1
      C 166.0 108.2 178.0 109.4 185.0 116.5
      L 216.8 149.0
      C 224.0 156.4 224.0 169.4 216.6 176.8
      L 155.8 234.0
      C 148.1 241.2 137.9 242.5 127.8 238.9
      C 129.9 255.2 142.9 266.4 159.1 266.5
      C 171.4 266.5 181.3 261.7 190.4 252.7
      L 247.3 195.7
      C 264.0 179.0 266.0 151.4 249.2 132.7
      L 204.4 87.9
      C 195.7 79.3 183.1 73.4 169.2 73.4
      Z"/>

    <circle cx="181.96" cy="39.34" r="22.32"/>
    <circle cx="98.26" cy="253.13" r="21.81"/>
  </g>
</svg>
