<svg width="95" height="143" viewBox="0 0 95 143" fill="none" xmlns="http://www.w3.org/2000/svg">
<path d="M1.25 2.5C1.94036 2.5 2.5 1.94035 2.5 1.24999C2.5 0.559634 1.94036 0 1.25 0C0.559644 0 0 0.559634 0 1.24999C0 1.94035 0.559644 2.5 1.25 2.5Z" fill="#27292B"/>
<path d="M23.8899 2.5C24.5802 2.5 25.1399 1.94035 25.1399 1.24999C25.1399 0.559634 24.5802 0 23.8899 0C23.1995 0 22.6399 0.559634 22.6399 1.24999C22.6399 1.94035 23.1995 2.5 23.8899 2.5Z" fill="#27292B"/>
<path d="M46.5298 2.5C47.2201 2.5 47.7798 1.94035 47.7798 1.24999C47.7798 0.559634 47.2201 0 46.5298 0C45.8394 0 45.2798 0.559634 45.2798 1.24999C45.2798 1.94035 45.8394 2.5 46.5298 2.5Z" fill="#27292B"/>
<path d="M69.1697 2.5C69.86 2.5 70.4197 1.94035 70.4197 1.24999C70.4197 0.559634 69.86 0 69.1697 0C68.4793 0 67.9197 0.559634 67.9197 1.24999C67.9197 1.94035 68.4793 2.5 69.1697 2.5Z" fill="#27292B"/>
<path d="M91.8093 2.5C92.4997 2.5 93.0593 1.94035 93.0593 1.24999C93.0593 0.559634 92.4997 0 91.8093 0C91.119 0 90.5593 0.559634 90.5593 1.24999C90.5593 1.94035 91.119 2.5 91.8093 2.5Z" fill="#27292B"/>
<path d="M1.25 21.3701C1.94036 21.3701 2.5 20.8105 2.5 20.1201C2.5 19.4298 1.94036 18.8701 1.25 18.8701C0.559644 18.8701 0 19.4298 0 20.1201C0 20.8105 0.559644 21.3701 1.25 21.3701Z" fill="#27292B"/>
<path d="M23.8899 21.3701C24.5802 21.3701 25.1399 20.8105 25.1399 20.1201C25.1399 19.4298 24.5802 18.8701 23.8899 18.8701C23.1995 18.8701 22.6399 19.4298 22.6399 20.1201C22.6399 20.8105 23.1995 21.3701 23.8899 21.3701Z" fill="#27292B"/>
<path d="M46.5298 21.3701C47.2201 21.3701 47.7798 20.8105 47.7798 20.1201C47.7798 19.4298 47.2201 18.8701 46.5298 18.8701C45.8394 18.8701 45.2798 19.4298 45.2798 20.1201C45.2798 20.8105 45.8394 21.3701 46.5298 21.3701Z" fill="#27292B"/>
<path d="M69.1697 21.3701C69.86 21.3701 70.4197 20.8105 70.4197 20.1201C70.4197 19.4298 69.86 18.8701 69.1697 18.8701C68.4793 18.8701 67.9197 19.4298 67.9197 20.1201C67.9197 20.8105 68.4793 21.3701 69.1697 21.3701Z" fill="#27292B"/>
<path d="M91.8093 21.3701C92.4997 21.3701 93.0593 20.8105 93.0593 20.1201C93.0593 19.4298 92.4997 18.8701 91.8093 18.8701C91.119 18.8701 90.5593 19.4298 90.5593 20.1201C90.5593 20.8105 91.119 21.3701 91.8093 21.3701Z" fill="#27292B"/>
<path d="M1.25 40.2402C1.94036 40.2402 2.5 39.6806 2.5 38.9902C2.5 38.2999 1.94036 37.7402 1.25 37.7402C0.559644 37.7402 0 38.2999 0 38.9902C0 39.6806 0.559644 40.2402 1.25 40.2402Z" fill="#27292B"/>
<path d="M23.8899 40.2402C24.5802 40.2402 25.1399 39.6806 25.1399 38.9902C25.1399 38.2999 24.5802 37.7402 23.8899 37.7402C23.1995 37.7402 22.6399 38.2999 22.6399 38.9902C22.6399 39.6806 23.1995 40.2402 23.8899 40.2402Z" fill="#27292B"/>
<path d="M46.5298 40.2402C47.2201 40.2402 47.7798 39.6806 47.7798 38.9902C47.7798 38.2999 47.2201 37.7402 46.5298 37.7402C45.8394 37.7402 45.2798 38.2999 45.2798 38.9902C45.2798 39.6806 45.8394 40.2402 46.5298 40.2402Z" fill="#27292B"/>
<path d="M69.1697 40.2402C69.86 40.2402 70.4197 39.6806 70.4197 38.9902C70.4197 38.2999 69.86 37.7402 69.1697 37.7402C68.4793 37.7402 67.9197 38.2999 67.9197 38.9902C67.9197 39.6806 68.4793 40.2402 69.1697 40.2402Z" fill="#27292B"/>
<path d="M91.8093 40.2402C92.4997 40.2402 93.0593 39.6806 93.0593 38.9902C93.0593 38.2999 92.4997 37.7402 91.8093 37.7402C91.119 37.7402 90.5593 38.2999 90.5593 38.9902C90.5593 39.6806 91.119 40.2402 91.8093 40.2402Z" fill="#27292B"/>
<path d="M1.25 59.1104C1.94036 59.1104 2.5 58.5507 2.5 57.8604C2.5 57.17 1.94036 56.6104 1.25 56.6104C0.559644 56.6104 0 57.17 0 57.8604C0 58.5507 0.559644 59.1104 1.25 59.1104Z" fill="#27292B"/>
<path d="M23.8899 59.1104C24.5802 59.1104 25.1399 58.5507 25.1399 57.8604C25.1399 57.17 24.5802 56.6104 23.8899 56.6104C23.1995 56.6104 22.6399 57.17 22.6399 57.8604C22.6399 58.5507 23.1995 59.1104 23.8899 59.1104Z" fill="#27292B"/>
<path d="M46.5298 59.1104C47.2201 59.1104 47.7798 58.5507 47.7798 57.8604C47.7798 57.17 47.2201 56.6104 46.5298 56.6104C45.8394 56.6104 45.2798 57.17 45.2798 57.8604C45.2798 58.5507 45.8394 59.1104 46.5298 59.1104Z" fill="#27292B"/>
<path d="M69.1697 59.1104C69.86 59.1104 70.4197 58.5507 70.4197 57.8604C70.4197 57.17 69.86 56.6104 69.1697 56.6104C68.4793 56.6104 67.9197 57.17 67.9197 57.8604C67.9197 58.5507 68.4793 59.1104 69.1697 59.1104Z" fill="#27292B"/>
<path d="M91.8093 59.1104C92.4997 59.1104 93.0593 58.5507 93.0593 57.8604C93.0593 57.17 92.4997 56.6104 91.8093 56.6104C91.119 56.6104 90.5593 57.17 90.5593 57.8604C90.5593 58.5507 91.119 59.1104 91.8093 59.1104Z" fill="#27292B"/>
<path d="M1.25 77.9805C1.94036 77.9805 2.5 77.4208 2.5 76.7305C2.5 76.0401 1.94036 75.4805 1.25 75.4805C0.559644 75.4805 0 76.0401 0 76.7305C0 77.4208 0.559644 77.9805 1.25 77.9805Z" fill="#27292B"/>
<path d="M23.8899 77.9805C24.5802 77.9805 25.1399 77.4208 25.1399 76.7305C25.1399 76.0401 24.5802 75.4805 23.8899 75.4805C23.1995 75.4805 22.6399 76.0401 22.6399 76.7305C22.6399 77.4208 23.1995 77.9805 23.8899 77.9805Z" fill="#27292B"/>
<path d="M46.5298 77.9805C47.2201 77.9805 47.7798 77.4208 47.7798 76.7305C47.7798 76.0401 47.2201 75.4805 46.5298 75.4805C45.8394 75.4805 45.2798 76.0401 45.2798 76.7305C45.2798 77.4208 45.8394 77.9805 46.5298 77.9805Z" fill="#27292B"/>
<path d="M69.1697 77.9805C69.86 77.9805 70.4197 77.4208 70.4197 76.7305C70.4197 76.0401 69.86 75.4805 69.1697 75.4805C68.4793 75.4805 67.9197 76.0401 67.9197 76.7305C67.9197 77.4208 68.4793 77.9805 69.1697 77.9805Z" fill="#27292B"/>
<path d="M91.8093 77.9805C92.4997 77.9805 93.0593 77.4208 93.0593 76.7305C93.0593 76.0401 92.4997 75.4805 91.8093 75.4805C91.119 75.4805 90.5593 76.0401 90.5593 76.7305C90.5593 77.4208 91.119 77.9805 91.8093 77.9805Z" fill="#27292B"/>
<path d="M1.25 96.8506C1.94036 96.8506 2.5 96.2909 2.5 95.6006C2.5 94.9102 1.94036 94.3506 1.25 94.3506C0.559644 94.3506 0 94.9102 0 95.6006C0 96.2909 0.559644 96.8506 1.25 96.8506Z" fill="#27292B"/>
<path d="M23.8899 96.8506C24.5802 96.8506 25.1399 96.2909 25.1399 95.6006C25.1399 94.9102 24.5802 94.3506 23.8899 94.3506C23.1995 94.3506 22.6399 94.9102 22.6399 95.6006C22.6399 96.2909 23.1995 96.8506 23.8899 96.8506Z" fill="#27292B"/>
<path d="M46.5298 96.8506C47.2201 96.8506 47.7798 96.2909 47.7798 95.6006C47.7798 94.9102 47.2201 94.3506 46.5298 94.3506C45.8394 94.3506 45.2798 94.9102 45.2798 95.6006C45.2798 96.2909 45.8394 96.8506 46.5298 96.8506Z" fill="#27292B"/>
<path d="M69.1697 96.8506C69.86 96.8506 70.4197 96.2909 70.4197 95.6006C70.4197 94.9102 69.86 94.3506 69.1697 94.3506C68.4793 94.3506 67.9197 94.9102 67.9197 95.6006C67.9197 96.2909 68.4793 96.8506 69.1697 96.8506Z" fill="#27292B"/>
<path d="M91.8093 96.8506C92.4997 96.8506 93.0593 96.2909 93.0593 95.6006C93.0593 94.9102 92.4997 94.3506 91.8093 94.3506C91.119 94.3506 90.5593 94.9102 90.5593 95.6006C90.5593 96.2909 91.119 96.8506 91.8093 96.8506Z" fill="#27292B"/>
<path d="M1.25 115.721C1.94036 115.721 2.5 115.161 2.5 114.471C2.5 113.78 1.94036 113.221 1.25 113.221C0.559644 113.221 0 113.78 0 114.471C0 115.161 0.559644 115.721 1.25 115.721Z" fill="#27292B"/>
<path d="M23.8899 115.721C24.5802 115.721 25.1399 115.161 25.1399 114.471C25.1399 113.78 24.5802 113.221 23.8899 113.221C23.1995 113.221 22.6399 113.78 22.6399 114.471C22.6399 115.161 23.1995 115.721 23.8899 115.721Z" fill="#27292B"/>
<path d="M46.5298 115.721C47.2201 115.721 47.7798 115.161 47.7798 114.471C47.7798 113.78 47.2201 113.221 46.5298 113.221C45.8394 113.221 45.2798 113.78 45.2798 114.471C45.2798 115.161 45.8394 115.721 46.5298 115.721Z" fill="#27292B"/>
<path d="M69.1697 115.721C69.86 115.721 70.4197 115.161 70.4197 114.471C70.4197 113.78 69.86 113.221 69.1697 113.221C68.4793 113.221 67.9197 113.78 67.9197 114.471C67.9197 115.161 68.4793 115.721 69.1697 115.721Z" fill="#27292B"/>
<path d="M91.8093 115.721C92.4997 115.721 93.0593 115.161 93.0593 114.471C93.0593 113.78 92.4997 113.221 91.8093 113.221C91.119 113.221 90.5593 113.78 90.5593 114.471C90.5593 115.161 91.119 115.721 91.8093 115.721Z" fill="#27292B"/>
<path d="M1.25 134.591C1.94036 134.591 2.5 134.031 2.5 133.341C2.5 132.65 1.94036 132.091 1.25 132.091C0.559644 132.091 0 132.65 0 133.341C0 134.031 0.559644 134.591 1.25 134.591Z" fill="#27292B"/>
<path d="M23.8899 134.591C24.5802 134.591 25.1399 134.031 25.1399 133.341C25.1399 132.65 24.5802 132.091 23.8899 132.091C23.1995 132.091 22.6399 132.65 22.6399 133.341C22.6399 134.031 23.1995 134.591 23.8899 134.591Z" fill="#27292B"/>
<path d="M46.5298 134.591C47.2201 134.591 47.7798 134.031 47.7798 133.341C47.7798 132.65 47.2201 132.091 46.5298 132.091C45.8394 132.091 45.2798 132.65 45.2798 133.341C45.2798 134.031 45.8394 134.591 46.5298 134.591Z" fill="#27292B"/>
<path d="M69.1697 134.591C69.86 134.591 70.4197 134.031 70.4197 133.341C70.4197 132.65 69.86 132.091 69.1697 132.091C68.4793 132.091 67.9197 132.65 67.9197 133.341C67.9197 134.031 68.4793 134.591 69.1697 134.591Z" fill="#27292B"/>
<path d="M91.8093 134.591C92.4997 134.591 93.0593 134.031 93.0593 133.341C93.0593 132.65 92.4997 132.091 91.8093 132.091C91.119 132.091 90.5593 132.65 90.5593 133.341C90.5593 134.031 91.119 134.591 91.8093 134.591Z" fill="#27292B"/>
</svg>
